<svg xmlns="http://www.w3.org/2000/svg" width="91" height="92" fill="none" xmlns:v="https://vecta.io/nano"><g filter="url(#A)"><path d="M86.916 29.237C85.444 17.009 74.235 7.822 61.312 3.568c5.887 6.373 10.093 16.271 10.093 28.418h4.545L57.09 52.932c-.404-.097-.776-.243-1.213-.243h-7.764V31.986h18.115C66.229 13.354 55.085.932 45.526.932S24.823 13.354 24.823 31.986h18.115V52.69h-7.764c-.437 0-.809.145-1.213.243L15.102 31.986h4.545c0-12.147 4.205-22.046 10.093-28.418C16.816 7.838 5.607 17.025 4.136 29.237c-.178 1.472 1.1 2.75 2.588 2.75h1.407l22.11 24.569c-.113.421-.259.841-.259 1.31v20.703a5.17 5.17 0 0 0 5.176 5.176h20.703a5.17 5.17 0 0 0 5.176-5.176V57.865c0-.469-.146-.873-.259-1.31l22.127-24.569h1.407c1.504 0 2.782-1.262 2.604-2.75z" fill="url(#B)"/></g><defs><filter id="A" x=".119" y=".932" width="90.814" height="90.813" filterUnits="userSpaceOnUse" color-interpolation-filters="sRGB"><feFlood flood-opacity="0" result="A"/><feColorMatrix in="SourceAlpha" values="0 0 0 0 0 0 0 0 0 0 0 0 0 0 0 0 0 0 127 0" result="B"/><feOffset dy="4"/><feGaussianBlur stdDeviation="2"/><feComposite in2="B" operator="out"/><feColorMatrix values="0 0 0 0 0.184314 0 0 0 0 0.129412 0 0 0 0 0.458824 0 0 0 0.35 0"/><feBlend in2="A"/><feBlend in="SourceGraphic"/></filter><linearGradient id="B" x1="-82.145" y1="-52.552" x2="128.338" y2="97.549" gradientUnits="userSpaceOnUse"><stop stop-color="#ded8ff"/><stop offset="1" stop-color="#7b48ed"/></linearGradient></defs></svg>