<svg xmlns="http://www.w3.org/2000/svg" width="42" height="48" fill="none" xmlns:v="https://vecta.io/nano"><path d="M27.861 22.8a2.46 2.46 0 0 1-1.652 2.125 2.46 2.46 0 0 1-2.609-.661 2.46 2.46 0 0 1-.442-2.655 2.46 2.46 0 0 1 2.254-1.471c1.366.058 2.45 1.18 2.45 2.554l-.002.112v-.006l.002.002zm-11.208-2.66c-.663.062-1.279.369-1.728.86s-.698 1.133-.7 1.799.246 1.308.693 1.802 1.062.803 1.725.867h.01c.659-.027 1.282-.308 1.739-.784s.712-1.11.711-1.77l-.002-.112v.006l.004-.134a2.54 2.54 0 0 0-2.438-2.538h-.004l-.01.004zM42.001 4.944V48c-6.046-5.344-4.114-3.574-11.136-10.104l1.272 4.44H4.919c-1.306-.004-2.557-.525-3.479-1.449S0 38.71-.001 37.404V4.932a4.93 4.93 0 0 1 1.44-3.483A4.93 4.93 0 0 1 4.917 0h32.162c1.306.004 2.557.525 3.479 1.449s1.44 2.177 1.441 3.483v.012h.002zm-6.84 22.752a32.01 32.01 0 0 0-3.54-14.172l.084.18a11.77 11.77 0 0 0-6.716-2.518l-.028-.002-.336.384c2.3.624 4.3 1.674 6.004 3.07l-.028-.022c-2.97-1.614-6.298-2.454-9.678-2.444-2.986 0-5.822.642-8.378 1.796l.128-.052c-.888.408-1.416.7-1.416.7a16.07 16.07 0 0 1 6.2-3.12l.112-.024-.24-.288c-2.466.119-4.832 1.006-6.768 2.538l.024-.018c-2.104 4.072-3.372 8.874-3.456 13.964v.028c.829 1.163 1.932 2.104 3.21 2.74s2.694.948 4.122.908h-.012l1.608-1.992a7.5 7.5 0 0 1-4.186-2.812l-.014-.02c.352.248.936.568.98.6 2.566 1.41 5.448 2.144 8.376 2.134a17.46 17.46 0 0 0 6.72-1.336l-.116.042c1.056-.404 1.964-.88 2.808-1.446l-.05.032a7.6 7.6 0 0 1-4.288 2.846l-.052.01a102.87 102.87 0 0 0 1.584 1.944l.222.002c1.387.001 2.754-.327 3.989-.957s2.303-1.545 3.115-2.669l.018-.026h-.002z" fill="#fff"/></svg>