<svg xmlns="http://www.w3.org/2000/svg" width="24" height="24" fill="none" xmlns:v="https://vecta.io/nano"><path d="M8.025 8.802a.6.6 0 0 0-.6.6v5.248a.6.6 0 0 0 .6.6.6.6 0 0 0 .6-.6v-1.572c0-.088.105-.133.168-.072L10.918 15a.6.6 0 0 0 .43.162.6.6 0 0 0 .419-.189.6.6 0 0 0 .162-.43.6.6 0 0 0-.189-.419l-1.429-1.342c-.062-.058-.028-.164.054-.184.457-.112.857-.387 1.125-.773s.385-.857.33-1.325-.28-.898-.63-1.211-.804-.487-1.275-.489H8.024h.001zm.7 2.65a.1.1 0 0 1-.1-.1v-1.25a.1.1 0 0 1 .1-.1h1.19c.097-.003.194.013.285.048s.174.088.244.155.126.149.164.238.058.186.058.283-.02.194-.058.283-.094.171-.164.238-.153.12-.244.155-.188.051-.285.048h-1.19zM2.494 9.47a.6.6 0 0 1 .6-.6h2.906a.6.6 0 0 1 .6.6.6.6 0 0 1-.6.6H3.794a.1.1 0 0 0-.1.1v1.262a.1.1 0 0 0 .1.1h2.167a.6.6 0 0 1 .6.6.6.6 0 0 1-.6.6H3.794a.1.1 0 0 0-.1.1v1.782a.6.6 0 0 1-.6.6.6.6 0 0 1-.6-.6V9.469v.001zm10.76-.6a.6.6 0 0 0-.6.6v5.144a.6.6 0 0 0 .6.6h2.906a.6.6 0 0 0 .6-.6.6.6 0 0 0-.6-.6h-2.206a.1.1 0 0 1-.038-.008c-.012-.005-.023-.013-.033-.022s-.017-.021-.022-.033a.1.1 0 0 1-.007-.038v-1.081a.1.1 0 0 1 .1-.1h2.166a.6.6 0 0 0 .6-.6.6.6 0 0 0-.6-.6h-2.166a.1.1 0 0 1-.1-.1V10.17a.1.1 0 0 1 .1-.1h2.206a.6.6 0 0 0 .6-.6.6.6 0 0 0-.6-.6h-2.906 0zm4.943 0a.6.6 0 0 0-.6.6v5.144a.6.6 0 0 0 .6.6h2.906a.6.6 0 0 0 .6-.6.6.6 0 0 0-.6-.6h-2.206a.1.1 0 0 1-.038-.008c-.012-.005-.023-.013-.033-.022s-.017-.021-.022-.033a.1.1 0 0 1-.007-.038v-1.081a.1.1 0 0 1 .1-.1h2.167a.6.6 0 0 0 .6-.6.6.6 0 0 0-.6-.6h-2.167a.1.1 0 0 1-.1-.1V10.17a.1.1 0 0 1 .1-.1h2.206a.6.6 0 0 0 .6-.6.6.6 0 0 0-.6-.6h-2.906 0z" fill="url(#A)"/><path d="M4 0a4 4 0 0 0-1.531.304A4 4 0 0 0 0 4v16a4 4 0 0 0 2.469 3.695A4 4 0 0 0 4 24h16a4 4 0 0 0 4-4V4a4 4 0 0 0-1.172-2.828A4 4 0 0 0 20 0H4zM1.6 4A2.4 2.4 0 0 1 4 1.6h16A2.4 2.4 0 0 1 22.4 4v16a2.4 2.4 0 0 1-2.4 2.4H4A2.4 2.4 0 0 1 1.6 20V4z" fill="url(#B)"/><defs><linearGradient id="A" x1="-17.516" y1="4.637" x2="-4.157" y2="33.018" gradientUnits="userSpaceOnUse"><stop stop-color="#ded8ff"/><stop offset="1" stop-color="#7b48ed"/></linearGradient><linearGradient id="B" x1="-25" y1="-15.5" x2="36" y2="28" gradientUnits="userSpaceOnUse"><stop stop-color="#ded8ff"/><stop offset="1" stop-color="#7b48ed"/></linearGradient></defs></svg>