<svg xmlns="http://www.w3.org/2000/svg" width="24" height="24" fill="none" xmlns:v="https://vecta.io/nano"><path d="M22.859 11.279l-3.132-1.817a3.51 3.51 0 0 0 .732-.892 3.43 3.43 0 0 0-1.257-4.686c-.983-.571-2.137-.571-3.109-.16l.011-.011-1.006.446-.126-1.097-.011.011c-.103-1.04-.709-2.046-1.691-2.617-.791-.452-1.728-.573-2.607-.338s-1.631.809-2.09 1.595a3.54 3.54 0 0 0-.389 1.086L5.04.992a2.28 2.28 0 0 0-3.12.834L.206 4.798a1.13 1.13 0 0 0-.114.866 1.13 1.13 0 0 0 .537.689l1.977 1.143 4.823 2.789H0v11.429c0 .606.241 1.188.67 1.616s1.01.67 1.616.67h18.287a2.28 2.28 0 0 0 2.286-2.286v-5.863l.834-1.452a2.28 2.28 0 0 0-.834-3.12zm-6.355-4.995c.309-.571 1.017-.731 1.554-.423a1.14 1.14 0 0 1 .423 1.566c-.32.571-1.017.731-1.566.423-.537-.32-.732-.994-.412-1.566zm-2.709 2.4l7.921 4.572-1.143 1.977-7.921-4.572 1.143-1.977zm-3.509 13.029H2.286V12.57h8.001v9.144zm.389-12.195L2.754 4.947 3.897 2.97l7.921 4.572-1.143 1.977zm.309-5.097c-.549-.32-.731-.994-.423-1.566.297-.571 1.017-.731 1.566-.423.549.32.731.994.411 1.566-.309.571-1.006.731-1.554.423zm1.589 17.293v-8.458l8.001 4.617v3.84h-8.001z" fill="url(#A)"/><defs><linearGradient id="A" x1="-25" y1="-15.5" x2="35.999" y2="28" gradientUnits="userSpaceOnUse"><stop stop-color="#ded8ff"/><stop offset="1" stop-color="#7b48ed"/></linearGradient></defs></svg>