<svg xmlns="http://www.w3.org/2000/svg" width="100" height="100" fill="none" xmlns:v="https://vecta.io/nano"><path d="M50 0C22.386 0 0 22.386 0 50s22.386 50 50 50 50-22.386 50-50S77.614 0 50 0zm-.36 22.888c6.752.032 12.924 4.338 15.546 10.345.897 2.092 1.373 4.242 1.373 6.574v5.945h8.191v31.36h-49.5v-31.36h7.532c-.068-4.2-.155-9.006 1.318-12.518 2.864-6.326 8.787-10.377 15.54-10.345zm-.366 9.985c-3.74.079-6.207 2.923-6.567 6.934v5.945h13.928v-6.006c-.172-3.803-3.05-6.768-6.995-6.873-.122-.003-.244-.003-.366 0z" fill="#fff"/></svg>