<svg width="100" height="100" viewBox="0 0 100 100" fill="none" xmlns="http://www.w3.org/2000/svg">
<path d="M50 0C22.3857 0 0 22.3857 0 50C0 77.6143 22.3857 100 50 100C77.6143 100 100 77.6143 100 50C100 22.3857 77.6143 0 50 0ZM49.6399 22.8882C56.3921 22.9203 62.5639 27.2262 65.1856 33.2337C66.0824 35.3261 66.5588 37.4756 66.5588 39.8072V45.7521H74.7498V77.1118H25.2502V45.7519H32.782C32.7138 41.5514 32.6273 36.7461 34.1003 33.2335C36.9645 26.9078 42.8877 22.856 49.6399 22.8882ZM49.2737 32.8735C45.5336 32.9522 43.067 35.7962 42.7062 39.807V45.7519H56.6345V39.7461C56.4628 35.9427 53.5842 32.9783 49.6398 32.8735C49.5177 32.8706 49.3957 32.8706 49.2737 32.8735Z" fill="white"/>
</svg>
