<svg width="20" height="34" viewBox="0 0 20 34" fill="none" xmlns="http://www.w3.org/2000/svg">
<path d="M10 3.33333C8.23189 3.33333 6.5362 4.03571 5.28595 5.28595C4.03571 6.5362 3.33333 8.23189 3.33333 10V23.3333C3.33333 25.1014 4.03571 26.7971 5.28595 28.0474C6.5362 29.2976 8.23189 30 10 30C11.7681 30 13.4638 29.2976 14.714 28.0474C15.9643 26.7971 16.6667 25.1014 16.6667 23.3333V10C16.6667 8.23189 15.9643 6.5362 14.714 5.28595C13.4638 4.03571 11.7681 3.33333 10 3.33333ZM10 0C12.6522 0 15.1957 1.05357 17.0711 2.92893C18.9464 4.8043 20 7.34784 20 10V23.3333C20 25.9855 18.9464 28.529 17.0711 30.4044C15.1957 32.2798 12.6522 33.3333 10 33.3333C7.34784 33.3333 4.8043 32.2798 2.92893 30.4044C1.05357 28.529 0 25.9855 0 23.3333V10C0 7.34784 1.05357 4.8043 2.92893 2.92893C4.8043 1.05357 7.34784 0 10 0ZM11.6667 13.3333C11.6667 13.7754 11.4911 14.1993 11.1785 14.5118C10.8659 14.8244 10.442 15 10 15C9.55797 15 9.13405 14.8244 8.82149 14.5118C8.50893 14.1993 8.33333 13.7754 8.33333 13.3333V8.33333C8.33333 7.89131 8.50893 7.46738 8.82149 7.15482C9.13405 6.84226 9.55797 6.66667 10 6.66667C10.442 6.66667 10.8659 6.84226 11.1785 7.15482C11.4911 7.46738 11.6667 7.89131 11.6667 8.33333V13.3333Z" fill="url(#paint0_linear_212_33)"/>
<defs>
<linearGradient id="paint0_linear_212_33" x1="10" y1="0" x2="10" y2="33.3333" gradientUnits="userSpaceOnUse">
<stop stop-color="#2F2175"/>
<stop offset="1" stop-color="#7B48ED"/>
</linearGradient>
</defs>
</svg>
