<svg width="75" height="74" viewBox="0 0 75 74" fill="none" xmlns="http://www.w3.org/2000/svg">
<path d="M60 1.16357e-07H14.89C12.947 -0.0157999 11.02 0.3519 9.21899 1.0821C7.41899 1.8123 5.78 2.8905 4.397 4.2552C3.013 5.6198 1.913 7.2439 1.159 9.0345C0.403997 10.8251 0.01 12.747 0 14.69V59.31C0.01 61.253 0.403997 63.1749 1.159 64.9655C1.913 66.7561 3.013 68.3802 4.397 69.7448C5.78 71.1095 7.41899 72.1877 9.21899 72.9179C11.02 73.6481 12.947 74.0158 14.89 74H60C61.94 74.0105 63.862 73.6389 65.658 72.9064C67.454 72.1738 69.089 71.0947 70.467 69.7306C71.846 68.3665 72.943 66.7441 73.695 64.9562C74.447 63.1682 74.84 61.2496 74.85 59.31V14.69C74.84 12.7504 74.447 10.8318 73.695 9.0438C72.943 7.2559 71.846 5.6335 70.467 4.2694C69.089 2.9053 67.454 1.8262 65.658 1.0936C63.862 0.3611 61.94 -0.0104999 60 1.16357e-07ZM59.89 59.2H15V14.8H59.87L59.89 59.2Z" fill="white"/>
</svg>
