<svg width="88" height="88" viewBox="0 0 88 88" fill="none" xmlns="http://www.w3.org/2000/svg">
<g filter="url(#filter0_d_385_473)">
<path d="M65.7188 80H22.2812C12.2266 80 4 71.7734 4 61.7188V18.2812C4 8.22656 12.2266 0 22.2812 0H65.7188C75.7734 0 84 8.22656 84 18.2812V61.7188C84 71.7734 75.7734 80 65.7188 80ZM67.5277 36.9053C64.1823 34.5534 59.732 36.0447 58.2336 39.4903L44.8294 38.2336C44.7536 37.0456 44.4591 35.9395 43.9925 34.9422L52.1666 28.3372C55.3666 30.4166 59.9486 29.08 61.3147 25.183C62.8891 20.6913 59.02 16.1392 54.3669 17.0092C50.4537 17.7408 48.4331 21.8494 49.7202 25.2919L41.5264 32.0033C39.2194 30.0408 37.108 29.2998 32.985 29.9627L30.447 25.4681C33.1661 22.8944 33.0736 18.2742 29.7327 15.9288C25.7722 13.1488 20.1909 15.6313 19.7103 20.3867C19.2916 24.5289 22.108 27.5555 26.9163 27.1595L29.7241 31.9161C25.2972 35.6805 25.272 42.6825 29.9958 46.2238L26.7384 53.12C23.0769 52.7216 19.5328 55.5933 19.702 59.4903C19.9045 64.1528 25.2708 66.8139 29.338 64.2691C32.8919 62.0456 33.1458 57.292 30.3053 54.7144L33.5361 47.8745C35.7517 48.3811 38.0044 48.0195 39.9102 47.0106L48.0484 55.7064C46.1058 58.9188 47.6211 63.4908 51.5598 64.8337C56.1009 66.3822 60.4852 62.4862 59.4323 57.838C58.5534 53.9578 54.4319 51.9634 51.0645 53.2125L42.9142 44.5039C43.4839 43.7774 43.9392 42.9681 44.2642 42.1039L57.8709 43.3797C58.7117 47.0919 62.8736 49.408 66.5987 47.6786C70.9362 45.665 71.4534 39.6655 67.5277 36.9053Z" fill="url(#paint0_linear_385_473)"/>
</g>
<defs>
<filter id="filter0_d_385_473" x="0" y="0" width="88" height="88" filterUnits="userSpaceOnUse" color-interpolation-filters="sRGB">
<feFlood flood-opacity="0" result="BackgroundImageFix"/>
<feColorMatrix in="SourceAlpha" type="matrix" values="0 0 0 0 0 0 0 0 0 0 0 0 0 0 0 0 0 0 127 0" result="hardAlpha"/>
<feOffset dy="4"/>
<feGaussianBlur stdDeviation="2"/>
<feComposite in2="hardAlpha" operator="out"/>
<feColorMatrix type="matrix" values="0 0 0 0 0.184314 0 0 0 0 0.129412 0 0 0 0 0.458824 0 0 0 0.35 0"/>
<feBlend mode="normal" in2="BackgroundImageFix" result="effect1_dropShadow_385_473"/>
<feBlend mode="normal" in="SourceGraphic" in2="effect1_dropShadow_385_473" result="shape"/>
</filter>
<linearGradient id="paint0_linear_385_473" x1="-79.3333" y1="-51.6667" x2="124" y2="93.3333" gradientUnits="userSpaceOnUse">
<stop stop-color="#DED8FF"/>
<stop offset="1" stop-color="#7B48ED"/>
</linearGradient>
</defs>
</svg>
