<svg width="24" height="24" viewBox="0 0 24 24" fill="none" xmlns="http://www.w3.org/2000/svg">
<path d="M18.5156 24H5.48438C2.46797 24 0 21.532 0 18.5156V5.48438C0 2.46797 2.46797 0 5.48438 0H18.5156C21.532 0 24 2.46797 24 5.48438V18.5156C24 21.532 21.532 24 18.5156 24ZM19.0583 11.0716C18.0547 10.366 16.7196 10.8134 16.2701 11.8471L12.2488 11.4701C12.2261 11.1137 12.1377 10.7819 11.9977 10.4827L14.45 8.50116C15.41 9.12497 16.7846 8.724 17.1944 7.55489C17.6667 6.20738 16.506 4.84177 15.1101 5.10277C13.9361 5.32223 13.3299 6.55481 13.716 7.58756L11.2579 9.60098C10.5658 9.01223 9.93239 8.78995 8.6955 8.9888L7.93411 7.64044C8.74983 6.86831 8.72208 5.48227 7.7198 4.77863C6.53166 3.94462 4.85728 4.68938 4.71309 6.11602C4.58747 7.35867 5.43239 8.26664 6.87488 8.14786L7.71722 9.57483C6.38916 10.7041 6.38161 12.8048 7.79873 13.8671L6.82153 15.936C5.72306 15.8165 4.65984 16.678 4.71061 17.8471C4.77136 19.2458 6.38123 20.0442 7.60139 19.2807C8.66756 18.6137 8.74373 17.1876 7.89159 16.4143L8.86083 14.3624C9.52552 14.5143 10.2013 14.4059 10.773 14.1032L13.2145 16.7119C12.6317 17.6756 13.0863 19.0472 14.268 19.4501C15.6303 19.9147 16.9455 18.7459 16.6297 17.3514C16.366 16.1873 15.1296 15.589 14.1194 15.9637L11.6743 13.3512C11.8452 13.1332 11.9818 12.8904 12.0793 12.6312L16.1613 13.0139C16.4135 14.1276 17.6621 14.8224 18.7796 14.3036C20.0809 13.6995 20.236 11.8996 19.0583 11.0716Z" fill="url(#paint0_linear_315_216)"/>
<defs>
<linearGradient id="paint0_linear_315_216" x1="-25" y1="-15.5" x2="36" y2="28" gradientUnits="userSpaceOnUse">
<stop stop-color="#DED8FF"/>
<stop offset="1" stop-color="#7B48ED"/>
</linearGradient>
</defs>
</svg>
