<svg width="91" height="92" viewBox="0 0 91 92" fill="none" xmlns="http://www.w3.org/2000/svg">
<g filter="url(#filter0_d_385_467)">
<path d="M26.3684 50.9501C26.3868 51.1342 26.3684 51.309 26.3132 51.4746C26.2764 51.585 26.2212 51.6771 26.1475 51.7507C26.0923 51.8243 26.0187 51.8979 25.9267 51.9715C25.7611 52.0819 25.5587 52.1831 25.3194 52.2751C25.1722 52.312 25.025 52.3396 24.8777 52.358C24.7489 52.3948 24.6109 52.3948 24.4637 52.358C24.1692 52.3396 23.9116 52.2291 23.6907 52.0267C23.3779 51.7691 23.1203 51.4838 22.9178 51.171C22.8258 51.0237 22.7246 50.8581 22.6142 50.6741C22.5037 50.4901 22.4025 50.2968 22.3105 50.0944L19.2464 44.2698C19.0992 44.2698 18.952 44.279 18.8047 44.2974C18.6575 44.2974 18.5103 44.3066 18.3631 44.325C17.9766 44.3619 17.6085 44.3711 17.2589 44.3526C16.9276 44.3342 16.578 44.3342 16.2099 44.3526H15.6854V49.3491C15.6854 49.4963 15.6762 49.6343 15.6578 49.7631C15.6578 49.892 15.6578 50.03 15.6578 50.1772C15.6578 50.2692 15.6486 50.3888 15.6302 50.5361C15.6302 50.6833 15.621 50.8213 15.6026 50.9501C15.5658 51.1526 15.483 51.3642 15.3542 51.585C15.2254 51.7875 15.0505 51.9623 14.8297 52.1095C14.4432 52.3488 13.974 52.4132 13.4219 52.3028C13.1826 52.2475 12.9526 52.1555 12.7317 52.0267C12.6581 51.9715 12.5937 51.9071 12.5385 51.8335C12.4833 51.7415 12.4373 51.6494 12.4005 51.5574C12.3637 51.4654 12.3269 51.3734 12.2901 51.2814C12.2717 51.171 12.2441 51.0698 12.2073 50.9777C12.1521 50.7937 12.1244 50.6189 12.1244 50.4532V34.7739C12.1244 34.6635 12.1244 34.553 12.1244 34.4426C12.1429 34.3138 12.1613 34.2034 12.1797 34.1114C12.1981 33.9089 12.2625 33.7065 12.3729 33.5041C12.4281 33.2832 12.5201 33.1268 12.6489 33.0348C12.7594 32.9244 12.925 32.8324 13.1458 32.7588C13.3851 32.6667 13.7255 32.6299 14.1672 32.6483C14.9953 32.6667 15.8143 32.6759 16.624 32.6759C17.4337 32.6759 18.2435 32.6943 19.0532 32.7311C19.5869 32.768 20.1482 32.8324 20.7371 32.9244C21.3444 32.998 21.9057 33.136 22.4209 33.3384C22.7522 33.4673 23.0558 33.5961 23.3319 33.7249C23.6815 33.9273 23.9576 34.1206 24.16 34.3046C24.8041 34.8935 25.2918 35.602 25.6231 36.4302C25.9543 37.2583 26.1199 38.0956 26.1199 38.9422C26.1199 39.9359 25.8807 40.8469 25.4022 41.675C24.9422 42.5031 24.1968 43.1196 23.1663 43.5245C23.1295 43.5613 23.0742 43.5889 23.0006 43.6073C22.9454 43.6073 22.8994 43.6165 22.8626 43.6349L25.4022 48.7418L25.6507 49.1834C25.6875 49.2571 25.7335 49.3399 25.7887 49.4319C25.8439 49.5239 25.8899 49.6159 25.9267 49.7079C25.9819 49.7999 26.0279 49.9012 26.0647 50.0116C26.1199 50.122 26.1752 50.2232 26.2304 50.3152C26.2856 50.5729 26.3316 50.7845 26.3684 50.9501ZM19.4673 41.1229C19.7985 41.1229 20.1114 41.0677 20.4058 40.9573C20.7187 40.8285 20.9947 40.6628 21.2339 40.4604C21.4916 40.258 21.7032 40.0279 21.8688 39.7703C22.0345 39.4943 22.1265 39.1998 22.1449 38.887C22.2185 37.9668 21.9793 37.2859 21.4272 36.8442C20.8751 36.3841 20.1482 36.1357 19.2464 36.0989C18.7127 36.0621 18.1238 36.0437 17.4797 36.0437C16.854 36.0437 16.2559 36.0437 15.6854 36.0437C15.7038 36.7982 15.7038 37.5711 15.6854 38.3625C15.6854 39.1354 15.6854 40.0555 15.6854 41.1229H19.4673Z" fill="white"/>
<path d="M45.6275 50.2876C45.6459 50.398 45.6551 50.5085 45.6551 50.6189C45.6735 50.7109 45.6827 50.8213 45.6827 50.9501C45.6827 51.171 45.6183 51.3734 45.4895 51.5574C45.4343 51.6494 45.3607 51.7415 45.2686 51.8335C45.1766 51.9071 45.0662 51.9715 44.9374 52.0267C44.4773 52.2844 43.9896 52.3764 43.4743 52.3028C43.2167 52.2291 42.9867 52.1095 42.7842 51.9439C42.7474 51.9071 42.7198 51.8887 42.7014 51.8887C42.683 51.8703 42.6646 51.8427 42.6462 51.8059C42.6278 51.7875 42.6094 51.7691 42.591 51.7507C42.5726 51.7139 42.545 51.6863 42.5082 51.6678C42.4162 51.5758 42.3426 51.493 42.2873 51.4194C42.2321 51.3274 42.1769 51.2354 42.1217 51.1434C42.0849 51.0513 42.0389 50.9685 41.9837 50.8949C41.9469 50.8029 41.9009 50.7109 41.8457 50.6189C41.8089 50.5453 41.7721 50.4809 41.7353 50.4256C41.6985 50.352 41.6708 50.2784 41.6524 50.2048C41.5788 50.0392 41.5328 49.892 41.5144 49.7631L40.9347 48.4105C39.6649 48.4105 38.3951 48.4197 37.1253 48.4381C35.8739 48.4381 34.6133 48.4289 33.3435 48.4105L32.7638 49.7631C32.727 49.8368 32.6994 49.9104 32.681 49.984C32.681 50.0576 32.6626 50.1312 32.6258 50.2048C32.589 50.2784 32.5522 50.352 32.5153 50.4256C32.4969 50.4809 32.4693 50.5453 32.4325 50.6189C32.3773 50.7109 32.3221 50.8029 32.2669 50.8949C32.2301 50.9685 32.1841 51.0513 32.1289 51.1434C32.0921 51.2354 32.0461 51.3274 31.9909 51.4194C31.9357 51.493 31.862 51.5758 31.77 51.6678C31.7332 51.6863 31.7056 51.7139 31.6872 51.7507C31.6688 51.7691 31.6504 51.7875 31.632 51.8059C31.6136 51.8427 31.5952 51.8703 31.5768 51.8887C31.5584 51.8887 31.5308 51.9071 31.494 51.9439C31.2915 52.1095 31.0615 52.2291 30.8039 52.3028C30.2886 52.3764 29.8009 52.2844 29.3408 52.0267C29.212 51.9715 29.1016 51.9071 29.0096 51.8335C28.9176 51.7415 28.8439 51.6494 28.7887 51.5574C28.6599 51.3734 28.5955 51.171 28.5955 50.9501C28.5955 50.8213 28.5955 50.7109 28.5955 50.6189C28.6139 50.5085 28.6323 50.398 28.6507 50.2876C28.6875 50.122 28.7335 49.9564 28.7887 49.7907C28.8439 49.6251 28.8716 49.5423 28.8716 49.5423L34.6133 35.4088L34.7789 34.9671C34.8157 34.8567 34.8617 34.7555 34.9169 34.6635C34.9722 34.5714 35.0182 34.461 35.055 34.3322C35.147 34.093 35.2482 33.8813 35.3586 33.6973C35.4138 33.5869 35.4782 33.4857 35.5518 33.3937C35.6255 33.3016 35.6991 33.2096 35.7727 33.1176C35.8831 32.9704 36.0395 32.8508 36.242 32.7588C36.4996 32.6667 36.7941 32.6207 37.1253 32.6207C37.475 32.6207 37.7786 32.6667 38.0363 32.7588C38.2387 32.8508 38.3951 32.9704 38.5055 33.1176C38.6343 33.2832 38.7724 33.4765 38.9196 33.6973C39.03 33.8813 39.1312 34.093 39.2232 34.3322C39.2601 34.461 39.3061 34.5714 39.3613 34.6635C39.4165 34.7555 39.4625 34.8567 39.4993 34.9671L39.6649 35.4088L45.4067 49.5423C45.4067 49.5423 45.4343 49.6251 45.4895 49.7907C45.5447 49.9564 45.5907 50.122 45.6275 50.2876ZM39.0852 43.5245C38.846 42.9908 38.5975 42.4387 38.3399 41.8682C38.1007 41.2977 37.843 40.7181 37.567 40.1292C37.4934 39.9635 37.4198 39.7979 37.3461 39.6323C37.2725 39.4482 37.1989 39.2734 37.1253 39.1078C37.0701 39.2734 37.0057 39.4482 36.9321 39.6323C36.8585 39.7979 36.7849 39.9635 36.7112 40.1292C36.4352 40.7181 36.1683 41.2977 35.9107 41.8682C35.6715 42.4387 35.4322 42.9908 35.193 43.5245L34.6961 44.7391H39.5821L39.0852 43.5245Z" fill="white"/>
<path d="M62.141 50.9501C62.1594 51.1342 62.141 51.309 62.0858 51.4746C62.049 51.585 61.9938 51.6771 61.9202 51.7507C61.865 51.8243 61.7914 51.8979 61.6994 51.9715C61.5337 52.0819 61.3313 52.1831 61.0921 52.2751C60.9448 52.312 60.7976 52.3396 60.6504 52.358C60.5216 52.3948 60.3836 52.3948 60.2363 52.358C59.9419 52.3396 59.6842 52.2291 59.4634 52.0267C59.1505 51.7691 58.8929 51.4838 58.6905 51.171C58.5985 51.0237 58.4972 50.8581 58.3868 50.6741C58.2764 50.4901 58.1752 50.2968 58.0832 50.0944L55.0191 44.2698C54.8718 44.2698 54.7246 44.279 54.5774 44.2974C54.4302 44.2974 54.283 44.3066 54.1357 44.325C53.7493 44.3619 53.3812 44.3711 53.0315 44.3526C52.7003 44.3342 52.3506 44.3342 51.9826 44.3526H51.4581V49.3491C51.4581 49.4963 51.4489 49.6343 51.4305 49.7631C51.4305 49.892 51.4305 50.03 51.4305 50.1772C51.4305 50.2692 51.4213 50.3888 51.4029 50.5361C51.4029 50.6833 51.3937 50.8213 51.3753 50.9501C51.3385 51.1526 51.2557 51.3642 51.1268 51.585C50.998 51.7875 50.8232 51.9623 50.6023 52.1095C50.2159 52.3488 49.7466 52.4132 49.1945 52.3028C48.9553 52.2475 48.7252 52.1555 48.5044 52.0267C48.4308 51.9715 48.3664 51.9071 48.3112 51.8335C48.256 51.7415 48.21 51.6494 48.1731 51.5574C48.1363 51.4654 48.0995 51.3734 48.0627 51.2814C48.0443 51.171 48.0167 51.0698 47.9799 50.9777C47.9247 50.7937 47.8971 50.6189 47.8971 50.4532V34.7739C47.8971 34.6635 47.8971 34.553 47.8971 34.4426C47.9155 34.3138 47.9339 34.2034 47.9523 34.1114C47.9707 33.9089 48.0351 33.7065 48.1455 33.5041C48.2008 33.2832 48.2928 33.1268 48.4216 33.0348C48.532 32.9244 48.6976 32.8324 48.9185 32.7588C49.1577 32.6667 49.4982 32.6299 49.9398 32.6483C50.768 32.6667 51.5869 32.6759 52.3966 32.6759C53.2064 32.6759 54.0161 32.6943 54.8258 32.7311C55.3595 32.768 55.9208 32.8324 56.5097 32.9244C57.117 32.998 57.6783 33.136 58.1936 33.3384C58.5248 33.4673 58.8285 33.5961 59.1045 33.7249C59.4542 33.9273 59.7302 34.1206 59.9327 34.3046C60.5768 34.8935 61.0645 35.602 61.3957 36.4302C61.727 37.2583 61.8926 38.0956 61.8926 38.9422C61.8926 39.9359 61.6534 40.8469 61.1749 41.675C60.7148 42.5031 59.9695 43.1196 58.9389 43.5245C58.9021 43.5613 58.8469 43.5889 58.7733 43.6073C58.7181 43.6073 58.6721 43.6165 58.6353 43.6349L61.1749 48.7418L61.4233 49.1834C61.4601 49.2571 61.5061 49.3399 61.5613 49.4319C61.6166 49.5239 61.6626 49.6159 61.6994 49.7079C61.7546 49.7999 61.8006 49.9012 61.8374 50.0116C61.8926 50.122 61.9478 50.2232 62.003 50.3152C62.0582 50.5729 62.1042 50.7845 62.141 50.9501ZM55.2399 41.1229C55.5712 41.1229 55.884 41.0677 56.1785 40.9573C56.4913 40.8285 56.7674 40.6628 57.0066 40.4604C57.2642 40.258 57.4759 40.0279 57.6415 39.7703C57.8071 39.4943 57.8991 39.1998 57.9175 38.887C57.9912 37.9668 57.7519 37.2859 57.1998 36.8442C56.6477 36.3841 55.9208 36.1357 55.0191 36.0989C54.4854 36.0621 53.8965 36.0437 53.2524 36.0437C52.6267 36.0437 52.0286 36.0437 51.4581 36.0437C51.4765 36.7982 51.4765 37.5711 51.4581 38.3625C51.4581 39.1354 51.4581 40.0555 51.4581 41.1229H55.2399Z" fill="white"/>
<path d="M68.15 35.9333L68.0948 40.2672H69.199C69.9535 40.2488 70.6252 40.2396 71.2141 40.2396C71.803 40.2396 72.4563 40.2488 73.174 40.2672H73.312C73.5329 40.2672 73.7445 40.2764 73.9469 40.2948C74.1678 40.2948 74.3794 40.2948 74.5818 40.2948C74.8027 40.3132 75.0143 40.35 75.2167 40.4052C75.4192 40.442 75.6216 40.488 75.824 40.5432C76.1369 40.6536 76.3945 40.8193 76.597 41.0401C76.781 41.2793 76.873 41.5462 76.873 41.8406C76.873 41.9327 76.873 42.0431 76.873 42.1719C76.873 42.2823 76.8546 42.3835 76.8178 42.4755C76.781 42.678 76.6614 42.862 76.4589 43.0276C76.3669 43.1565 76.1921 43.2485 75.9345 43.3037C75.6952 43.3773 75.456 43.4233 75.2167 43.4417C74.9591 43.4969 74.7015 43.5245 74.4438 43.5245H73.1464L68.0396 43.5521L67.9844 48.9626L73.4777 49.0178H74.7751C74.9223 49.0178 75.0603 49.0178 75.1891 49.0178C75.318 49.0178 75.4376 49.027 75.548 49.0454C75.6952 49.0822 75.824 49.1098 75.9345 49.1282C76.0633 49.1282 76.1829 49.1466 76.2933 49.1834C76.5142 49.2571 76.6982 49.3583 76.8454 49.4871C77.0294 49.6711 77.1491 49.8644 77.2043 50.0668C77.2227 50.1588 77.2319 50.26 77.2319 50.3704C77.2503 50.4624 77.2503 50.5637 77.2319 50.6741C77.2319 50.9685 77.1399 51.2354 76.9558 51.4746C76.735 51.7323 76.4773 51.8979 76.1829 51.9715C75.7964 52.1371 75.3732 52.2199 74.9131 52.2199C74.7107 52.2383 74.499 52.2475 74.2782 52.2475C74.0574 52.2475 73.8457 52.2567 73.6433 52.2751H73.4777C72.0422 52.312 70.5516 52.312 69.0057 52.2751C68.6377 52.2751 68.3432 52.2659 68.1224 52.2475C67.9015 52.2475 67.6991 52.2475 67.5151 52.2475C67.3495 52.2475 67.1746 52.2475 66.9906 52.2475C66.8066 52.2475 66.5673 52.2475 66.2729 52.2475C65.8496 52.2844 65.4999 52.2107 65.2239 52.0267C65.0215 51.8979 64.865 51.7231 64.7546 51.5022C64.6994 51.447 64.6718 51.3918 64.6718 51.3366C64.6534 51.2998 64.635 51.2722 64.6166 51.2538C64.5982 51.2354 64.5798 51.2078 64.5614 51.171C64.5246 51.079 64.497 50.9869 64.4786 50.8949C64.4602 50.7845 64.451 50.6833 64.451 50.5913C64.4326 50.4993 64.4142 50.4072 64.3958 50.3152C64.3958 50.2232 64.3866 50.1312 64.3682 50.0392V49.5975C64.3682 49.5239 64.3682 49.4503 64.3682 49.3767C64.3866 49.3031 64.3958 49.2295 64.3958 49.1558V47.0027L64.451 43.0276V39.3562C64.451 38.6937 64.451 38.1048 64.451 37.5895C64.4694 37.0743 64.4878 36.513 64.5062 35.9057V35.7676C64.5246 35.5652 64.5338 35.3812 64.5338 35.2156C64.5522 35.0315 64.5614 34.8475 64.5614 34.6635C64.5798 34.2954 64.681 33.9365 64.865 33.5869C64.9387 33.4397 65.0123 33.3108 65.0859 33.2004C65.1779 33.09 65.2975 32.998 65.4447 32.9244C65.7208 32.7588 66.006 32.6759 66.3005 32.6759C66.4477 32.6759 66.5581 32.6851 66.6317 32.7035V32.6759C66.963 32.6759 67.2298 32.6759 67.4323 32.6759C67.6347 32.6759 67.8279 32.6759 68.012 32.6759C68.2144 32.6759 68.426 32.6759 68.6469 32.6759C68.8677 32.6575 69.1713 32.6483 69.5578 32.6483C70.2939 32.6299 70.9932 32.6207 71.6558 32.6207C72.3183 32.6207 72.9992 32.6299 73.6985 32.6483H73.8089C74.0113 32.6667 74.223 32.6759 74.4438 32.6759C74.6646 32.6759 74.8763 32.6851 75.0787 32.7035C75.2812 32.7035 75.4836 32.7311 75.686 32.7864C75.8885 32.8232 76.0909 32.8784 76.2933 32.952C76.6062 33.044 76.8638 33.2004 77.0662 33.4213C77.2319 33.6789 77.3147 33.9365 77.3147 34.1942C77.3147 34.3046 77.3147 34.415 77.3147 34.5254C77.3147 34.6175 77.2963 34.7095 77.2595 34.8015C77.2411 34.9855 77.1307 35.1787 76.9282 35.3812C76.8546 35.418 76.7718 35.464 76.6798 35.5192C76.6062 35.5744 76.5141 35.6204 76.4037 35.6572C76.2933 35.694 76.1737 35.7216 76.0449 35.74C75.9345 35.74 75.824 35.7492 75.7136 35.7676C75.5664 35.8044 75.4284 35.8229 75.2996 35.8229C75.1891 35.8229 75.0603 35.8229 74.9131 35.8229H73.6709L68.15 35.8505V35.9333Z" fill="white"/>
<path d="M86.9327 14.2085C86.9327 12.396 86.5757 10.6012 85.8821 8.92662C85.1884 7.25205 84.1718 5.7305 82.8901 4.44884C80.3017 1.86042 76.791 0.406253 73.1304 0.406252L17.9214 0.40625C14.2608 0.40625 10.7502 1.86041 8.16173 4.44884C6.88007 5.7305 5.8634 7.25205 5.16978 8.92661C4.47615 10.6012 4.11914 12.396 4.11914 14.2085L4.11914 69.4176C4.11914 73.0781 5.5733 76.5888 8.16173 79.1772C10.7502 81.7657 14.2608 83.2198 17.9214 83.2198H73.1304C74.943 83.2198 76.7378 82.8628 78.4123 82.1692C80.0869 81.4756 81.6085 80.4589 82.8901 79.1772C84.1718 77.8956 85.1884 76.374 85.8821 74.6995C86.5757 73.0249 86.9327 71.2301 86.9327 69.4176L86.9327 14.2085ZM73.1304 5.92716C75.3268 5.92716 77.4332 6.79966 78.9862 8.35271C80.5393 9.90577 81.4118 12.0122 81.4118 14.2085V69.4176C81.4118 71.6139 80.5393 73.7203 78.9862 75.2734C77.4332 76.8264 75.3268 77.6989 73.1304 77.6989L17.9214 77.6989C15.725 77.6989 13.6187 76.8264 12.0656 75.2734C10.5125 73.7203 9.64004 71.6139 9.64004 69.4176L9.64005 14.2085C9.64005 12.0122 10.5125 9.90576 12.0656 8.35271C13.6187 6.79965 15.7251 5.92715 17.9214 5.92715L73.1304 5.92716Z" fill="white"/>
</g>
<defs>
<filter id="filter0_d_385_467" x="0.119141" y="0.40625" width="90.8135" height="90.8145" filterUnits="userSpaceOnUse" color-interpolation-filters="sRGB">
<feFlood flood-opacity="0" result="BackgroundImageFix"/>
<feColorMatrix in="SourceAlpha" type="matrix" values="0 0 0 0 0 0 0 0 0 0 0 0 0 0 0 0 0 0 127 0" result="hardAlpha"/>
<feOffset dy="4"/>
<feGaussianBlur stdDeviation="2"/>
<feComposite in2="hardAlpha" operator="out"/>
<feColorMatrix type="matrix" values="0 0 0 0 0.184314 0 0 0 0 0.129412 0 0 0 0 0.458824 0 0 0 0.35 0"/>
<feBlend mode="normal" in2="BackgroundImageFix" result="effect1_dropShadow_385_467"/>
<feBlend mode="normal" in="SourceGraphic" in2="effect1_dropShadow_385_467" result="shape"/>
</filter>
</defs>
</svg>
