<svg width="25" height="26" viewBox="0 0 25 26" fill="none" xmlns="http://www.w3.org/2000/svg">
<path d="M8.336 14.7508C8.34 14.7908 8.336 14.8288 8.324 14.8648C8.316 14.8888 8.304 14.9088 8.288 14.9248C8.276 14.9408 8.26 14.9568 8.24 14.9728C8.204 14.9968 8.16 15.0188 8.108 15.0388C8.076 15.0468 8.044 15.0528 8.012 15.0568C7.984 15.0648 7.954 15.0648 7.922 15.0568C7.858 15.0528 7.802 15.0288 7.754 14.9848C7.686 14.9288 7.63 14.8668 7.586 14.7988C7.566 14.7668 7.544 14.7308 7.52 14.6908C7.496 14.6508 7.474 14.6088 7.454 14.5648L6.788 13.2988C6.756 13.2988 6.724 13.3008 6.692 13.3048C6.66 13.3048 6.628 13.3068 6.596 13.3108C6.512 13.3188 6.432 13.3208 6.356 13.3168C6.284 13.3128 6.208 13.3128 6.128 13.3168H6.014V14.4028C6.014 14.4348 6.012 14.4648 6.008 14.4928C6.008 14.5208 6.008 14.5508 6.008 14.5828C6.008 14.6028 6.006 14.6288 6.002 14.6608C6.002 14.6928 6 14.7228 5.996 14.7508C5.988 14.7948 5.97 14.8408 5.942 14.8888C5.914 14.9328 5.876 14.9708 5.828 15.0028C5.744 15.0548 5.642 15.0688 5.522 15.0448C5.47 15.0328 5.42 15.0128 5.372 14.9848C5.356 14.9728 5.342 14.9588 5.33 14.9428C5.318 14.9228 5.308 14.9028 5.3 14.8828C5.292 14.8628 5.284 14.8428 5.276 14.8228C5.272 14.7988 5.266 14.7768 5.258 14.7568C5.246 14.7168 5.24 14.6788 5.24 14.6428V11.2348C5.24 11.2108 5.24 11.1868 5.24 11.1628C5.244 11.1348 5.248 11.1108 5.252 11.0908C5.256 11.0468 5.27 11.0028 5.294 10.9588C5.306 10.9108 5.326 10.8768 5.354 10.8568C5.378 10.8328 5.414 10.8128 5.462 10.7968C5.514 10.7768 5.588 10.7688 5.684 10.7728C5.864 10.7768 6.042 10.7788 6.218 10.7788C6.394 10.7788 6.57 10.7828 6.746 10.7908C6.862 10.7988 6.984 10.8128 7.112 10.8328C7.244 10.8488 7.366 10.8788 7.478 10.9228C7.55 10.9508 7.616 10.9788 7.676 11.0068C7.752 11.0508 7.812 11.0928 7.856 11.1328C7.996 11.2608 8.102 11.4148 8.174 11.5948C8.246 11.7748 8.282 11.9568 8.282 12.1408C8.282 12.3568 8.23 12.5548 8.126 12.7348C8.026 12.9148 7.864 13.0488 7.64 13.1368C7.632 13.1448 7.62 13.1508 7.604 13.1548C7.592 13.1548 7.582 13.1568 7.574 13.1608L8.126 14.2708L8.18 14.3668C8.188 14.3828 8.198 14.4008 8.21 14.4208C8.222 14.4408 8.232 14.4608 8.24 14.4808C8.252 14.5008 8.262 14.5228 8.27 14.5468C8.282 14.5708 8.294 14.5928 8.306 14.6128C8.318 14.6688 8.328 14.7148 8.336 14.7508ZM6.836 12.6148C6.908 12.6148 6.976 12.6028 7.04 12.5788C7.108 12.5508 7.168 12.5148 7.22 12.4708C7.276 12.4268 7.322 12.3768 7.358 12.3208C7.394 12.2608 7.414 12.1968 7.418 12.1288C7.434 11.9288 7.382 11.7808 7.262 11.6848C7.142 11.5848 6.984 11.5308 6.788 11.5228C6.672 11.5148 6.544 11.5108 6.404 11.5108C6.268 11.5108 6.138 11.5108 6.014 11.5108C6.018 11.6748 6.018 11.8428 6.014 12.0148C6.014 12.1828 6.014 12.3828 6.014 12.6148H6.836ZM12.5221 14.6068C12.5261 14.6308 12.5281 14.6548 12.5281 14.6788C12.5321 14.6988 12.5341 14.7228 12.5341 14.7508C12.5341 14.7988 12.5201 14.8428 12.4921 14.8828C12.4801 14.9028 12.4641 14.9228 12.4441 14.9428C12.4241 14.9588 12.4001 14.9728 12.3721 14.9848C12.2721 15.0408 12.1661 15.0608 12.0541 15.0448C11.9981 15.0288 11.9481 15.0028 11.9041 14.9668C11.8961 14.9588 11.8901 14.9548 11.8861 14.9548C11.8821 14.9508 11.8781 14.9448 11.8741 14.9368C11.8701 14.9328 11.8661 14.9288 11.8621 14.9248C11.8581 14.9168 11.8521 14.9108 11.8441 14.9068C11.8241 14.8868 11.8081 14.8688 11.7961 14.8528C11.7841 14.8328 11.7721 14.8128 11.7601 14.7928C11.7521 14.7728 11.7421 14.7548 11.7301 14.7388C11.7221 14.7188 11.7121 14.6988 11.7001 14.6788C11.6921 14.6628 11.6841 14.6488 11.6761 14.6368C11.6681 14.6208 11.6621 14.6048 11.6581 14.5888C11.6421 14.5528 11.6321 14.5208 11.6281 14.4928L11.5021 14.1988C11.2261 14.1988 10.9501 14.2008 10.6741 14.2048C10.4021 14.2048 10.1281 14.2028 9.85208 14.1988L9.72608 14.4928C9.71808 14.5088 9.71208 14.5248 9.70808 14.5408C9.70808 14.5568 9.70408 14.5728 9.69608 14.5888C9.68808 14.6048 9.68008 14.6208 9.67208 14.6368C9.66808 14.6488 9.66208 14.6628 9.65408 14.6788C9.64208 14.6988 9.63008 14.7188 9.61808 14.7388C9.61008 14.7548 9.60008 14.7728 9.58808 14.7928C9.58008 14.8128 9.57008 14.8328 9.55808 14.8528C9.54608 14.8688 9.53008 14.8868 9.51008 14.9068C9.50208 14.9108 9.49608 14.9168 9.49208 14.9248C9.48808 14.9288 9.48408 14.9328 9.48008 14.9368C9.47608 14.9448 9.47208 14.9508 9.46808 14.9548C9.46408 14.9548 9.45808 14.9588 9.45008 14.9668C9.40608 15.0028 9.35608 15.0288 9.30008 15.0448C9.18808 15.0608 9.08208 15.0408 8.98208 14.9848C8.95408 14.9728 8.93008 14.9588 8.91008 14.9428C8.89008 14.9228 8.87408 14.9028 8.86208 14.8828C8.83408 14.8428 8.82008 14.7988 8.82008 14.7508C8.82008 14.7228 8.82008 14.6988 8.82008 14.6788C8.82408 14.6548 8.82808 14.6308 8.83208 14.6068C8.84008 14.5708 8.85008 14.5348 8.86208 14.4988C8.87408 14.4628 8.88008 14.4448 8.88008 14.4448L10.1281 11.3728L10.1641 11.2768C10.1721 11.2528 10.1821 11.2308 10.1941 11.2108C10.2061 11.1908 10.2161 11.1668 10.2241 11.1388C10.2441 11.0868 10.2661 11.0408 10.2901 11.0008C10.3021 10.9768 10.3161 10.9548 10.3321 10.9348C10.3481 10.9148 10.3641 10.8948 10.3801 10.8748C10.4041 10.8428 10.4381 10.8168 10.4821 10.7968C10.5381 10.7768 10.6021 10.7668 10.6741 10.7668C10.7501 10.7668 10.8161 10.7768 10.8721 10.7968C10.9161 10.8168 10.9501 10.8428 10.9741 10.8748C11.0021 10.9108 11.0321 10.9528 11.0641 11.0008C11.0881 11.0408 11.1101 11.0868 11.1301 11.1388C11.1381 11.1668 11.1481 11.1908 11.1601 11.2108C11.1721 11.2308 11.1821 11.2528 11.1901 11.2768L11.2261 11.3728L12.4741 14.4448C12.4741 14.4448 12.4801 14.4628 12.4921 14.4988C12.5041 14.5348 12.5141 14.5708 12.5221 14.6068ZM11.1001 13.1368C11.0481 13.0208 10.9941 12.9008 10.9381 12.7768C10.8861 12.6528 10.8301 12.5268 10.7701 12.3988C10.7541 12.3628 10.7381 12.3268 10.7221 12.2908C10.7061 12.2508 10.6901 12.2128 10.6741 12.1768C10.6621 12.2128 10.6481 12.2508 10.6321 12.2908C10.6161 12.3268 10.6001 12.3628 10.5841 12.3988C10.5241 12.5268 10.4661 12.6528 10.4101 12.7768C10.3581 12.9008 10.3061 13.0208 10.2541 13.1368L10.1461 13.4008H11.2081L11.1001 13.1368ZM16.1114 14.7508C16.1154 14.7908 16.1114 14.8288 16.0994 14.8648C16.0914 14.8888 16.0794 14.9088 16.0634 14.9248C16.0514 14.9408 16.0354 14.9568 16.0154 14.9728C15.9794 14.9968 15.9354 15.0188 15.8834 15.0388C15.8514 15.0468 15.8194 15.0528 15.7874 15.0568C15.7594 15.0648 15.7294 15.0648 15.6974 15.0568C15.6334 15.0528 15.5774 15.0288 15.5294 14.9848C15.4614 14.9288 15.4054 14.8668 15.3614 14.7988C15.3414 14.7668 15.3194 14.7308 15.2954 14.6908C15.2714 14.6508 15.2494 14.6088 15.2294 14.5648L14.5634 13.2988C14.5314 13.2988 14.4994 13.3008 14.4674 13.3048C14.4354 13.3048 14.4034 13.3068 14.3714 13.3108C14.2874 13.3188 14.2074 13.3208 14.1314 13.3168C14.0594 13.3128 13.9834 13.3128 13.9034 13.3168H13.7894V14.4028C13.7894 14.4348 13.7874 14.4648 13.7834 14.4928C13.7834 14.5208 13.7834 14.5508 13.7834 14.5828C13.7834 14.6028 13.7814 14.6288 13.7774 14.6608C13.7774 14.6928 13.7754 14.7228 13.7714 14.7508C13.7634 14.7948 13.7454 14.8408 13.7174 14.8888C13.6894 14.9328 13.6514 14.9708 13.6034 15.0028C13.5194 15.0548 13.4174 15.0688 13.2974 15.0448C13.2454 15.0328 13.1954 15.0128 13.1474 14.9848C13.1314 14.9728 13.1174 14.9588 13.1054 14.9428C13.0934 14.9228 13.0834 14.9028 13.0754 14.8828C13.0674 14.8628 13.0594 14.8428 13.0514 14.8228C13.0474 14.7988 13.0414 14.7768 13.0334 14.7568C13.0214 14.7168 13.0154 14.6788 13.0154 14.6428V11.2348C13.0154 11.2108 13.0154 11.1868 13.0154 11.1628C13.0194 11.1348 13.0234 11.1108 13.0274 11.0908C13.0314 11.0468 13.0454 11.0028 13.0694 10.9588C13.0814 10.9108 13.1014 10.8768 13.1294 10.8568C13.1534 10.8328 13.1894 10.8128 13.2374 10.7968C13.2894 10.7768 13.3634 10.7688 13.4594 10.7728C13.6394 10.7768 13.8174 10.7788 13.9934 10.7788C14.1694 10.7788 14.3454 10.7828 14.5214 10.7908C14.6374 10.7988 14.7594 10.8128 14.8874 10.8328C15.0194 10.8488 15.1414 10.8788 15.2534 10.9228C15.3254 10.9508 15.3914 10.9788 15.4514 11.0068C15.5274 11.0508 15.5874 11.0928 15.6314 11.1328C15.7714 11.2608 15.8774 11.4148 15.9494 11.5948C16.0214 11.7748 16.0574 11.9568 16.0574 12.1408C16.0574 12.3568 16.0054 12.5548 15.9014 12.7348C15.8014 12.9148 15.6394 13.0488 15.4154 13.1368C15.4074 13.1448 15.3954 13.1508 15.3794 13.1548C15.3674 13.1548 15.3574 13.1568 15.3494 13.1608L15.9014 14.2708L15.9554 14.3668C15.9634 14.3828 15.9734 14.4008 15.9854 14.4208C15.9974 14.4408 16.0074 14.4608 16.0154 14.4808C16.0274 14.5008 16.0374 14.5228 16.0454 14.5468C16.0574 14.5708 16.0694 14.5928 16.0814 14.6128C16.0934 14.6688 16.1034 14.7148 16.1114 14.7508ZM14.6114 12.6148C14.6834 12.6148 14.7514 12.6028 14.8154 12.5788C14.8834 12.5508 14.9434 12.5148 14.9954 12.4708C15.0514 12.4268 15.0974 12.3768 15.1334 12.3208C15.1694 12.2608 15.1894 12.1968 15.1934 12.1288C15.2094 11.9288 15.1574 11.7808 15.0374 11.6848C14.9174 11.5848 14.7594 11.5308 14.5634 11.5228C14.4474 11.5148 14.3194 11.5108 14.1794 11.5108C14.0434 11.5108 13.9134 11.5108 13.7894 11.5108C13.7934 11.6748 13.7934 11.8428 13.7894 12.0148C13.7894 12.1828 13.7894 12.3828 13.7894 12.6148H14.6114ZM17.4175 11.4868L17.4055 12.4288H17.6455C17.8095 12.4248 17.9555 12.4228 18.0835 12.4228C18.2115 12.4228 18.3535 12.4248 18.5095 12.4288H18.5395C18.5875 12.4288 18.6335 12.4308 18.6775 12.4348C18.7255 12.4348 18.7715 12.4348 18.8155 12.4348C18.8635 12.4388 18.9095 12.4468 18.9535 12.4588C18.9975 12.4668 19.0415 12.4768 19.0855 12.4888C19.1535 12.5128 19.2095 12.5488 19.2535 12.5968C19.2935 12.6488 19.3135 12.7068 19.3135 12.7708C19.3135 12.7908 19.3135 12.8148 19.3135 12.8428C19.3135 12.8668 19.3095 12.8888 19.3015 12.9088C19.2935 12.9528 19.2675 12.9928 19.2235 13.0288C19.2035 13.0568 19.1655 13.0768 19.1095 13.0888C19.0575 13.1048 19.0055 13.1148 18.9535 13.1188C18.8975 13.1308 18.8415 13.1368 18.7855 13.1368H18.5035L17.3935 13.1428L17.3815 14.3188L18.5755 14.3308H18.8575C18.8895 14.3308 18.9195 14.3308 18.9475 14.3308C18.9755 14.3308 19.0015 14.3328 19.0255 14.3368C19.0575 14.3448 19.0855 14.3508 19.1095 14.3548C19.1375 14.3548 19.1635 14.3588 19.1875 14.3668C19.2355 14.3828 19.2755 14.4048 19.3075 14.4328C19.3475 14.4728 19.3735 14.5148 19.3855 14.5588C19.3895 14.5788 19.3915 14.6008 19.3915 14.6248C19.3955 14.6448 19.3955 14.6668 19.3915 14.6908C19.3915 14.7548 19.3715 14.8128 19.3315 14.8648C19.2835 14.9208 19.2275 14.9568 19.1635 14.9728C19.0795 15.0088 18.9875 15.0268 18.8875 15.0268C18.8435 15.0308 18.7975 15.0328 18.7495 15.0328C18.7015 15.0328 18.6555 15.0348 18.6115 15.0388H18.5755C18.2635 15.0468 17.9395 15.0468 17.6035 15.0388C17.5235 15.0388 17.4595 15.0368 17.4115 15.0328C17.3635 15.0328 17.3195 15.0328 17.2795 15.0328C17.2435 15.0328 17.2055 15.0328 17.1655 15.0328C17.1255 15.0328 17.0735 15.0328 17.0095 15.0328C16.9175 15.0408 16.8415 15.0248 16.7815 14.9848C16.7375 14.9568 16.7035 14.9188 16.6795 14.8708C16.6675 14.8588 16.6615 14.8468 16.6615 14.8348C16.6575 14.8268 16.6535 14.8208 16.6495 14.8168C16.6455 14.8128 16.6415 14.8068 16.6375 14.7988C16.6295 14.7788 16.6235 14.7588 16.6195 14.7388C16.6155 14.7148 16.6135 14.6928 16.6135 14.6728C16.6095 14.6528 16.6055 14.6328 16.6015 14.6128C16.6015 14.5928 16.5995 14.5728 16.5955 14.5528V14.4568C16.5955 14.4408 16.5955 14.4248 16.5955 14.4088C16.5995 14.3928 16.6015 14.3768 16.6015 14.3608V13.8928L16.6135 13.0288V12.2308C16.6135 12.0868 16.6135 11.9588 16.6135 11.8468C16.6175 11.7348 16.6215 11.6128 16.6255 11.4808V11.4508C16.6295 11.4068 16.6315 11.3668 16.6315 11.3308C16.6355 11.2908 16.6375 11.2508 16.6375 11.2108C16.6415 11.1308 16.6635 11.0528 16.7035 10.9768C16.7195 10.9448 16.7355 10.9168 16.7515 10.8928C16.7715 10.8688 16.7975 10.8488 16.8295 10.8328C16.8895 10.7968 16.9515 10.7788 17.0155 10.7788C17.0475 10.7788 17.0715 10.7808 17.0875 10.7848V10.7788C17.1595 10.7788 17.2175 10.7788 17.2615 10.7788C17.3055 10.7788 17.3475 10.7788 17.3875 10.7788C17.4315 10.7788 17.4775 10.7788 17.5255 10.7788C17.5735 10.7748 17.6395 10.7728 17.7235 10.7728C17.8835 10.7688 18.0355 10.7668 18.1795 10.7668C18.3235 10.7668 18.4715 10.7688 18.6235 10.7728H18.6475C18.6915 10.7768 18.7375 10.7788 18.7855 10.7788C18.8335 10.7788 18.8795 10.7808 18.9235 10.7848C18.9675 10.7848 19.0115 10.7908 19.0555 10.8028C19.0995 10.8108 19.1435 10.8228 19.1875 10.8388C19.2555 10.8588 19.3115 10.8928 19.3555 10.9408C19.3915 10.9968 19.4095 11.0528 19.4095 11.1088C19.4095 11.1328 19.4095 11.1568 19.4095 11.1808C19.4095 11.2008 19.4055 11.2208 19.3975 11.2408C19.3935 11.2808 19.3695 11.3228 19.3255 11.3668C19.3095 11.3748 19.2915 11.3848 19.2715 11.3968C19.2555 11.4088 19.2355 11.4188 19.2115 11.4268C19.1875 11.4348 19.1615 11.4408 19.1335 11.4448C19.1095 11.4448 19.0855 11.4468 19.0615 11.4508C19.0295 11.4588 18.9995 11.4628 18.9715 11.4628C18.9475 11.4628 18.9195 11.4628 18.8875 11.4628H18.6175L17.4175 11.4688V11.4868Z" fill="url(#paint0_linear_250_206)"/>
<path d="M14.0171 2.9878C13.7541 2.72484 13.4419 2.51624 13.0984 2.37393C12.7548 2.23161 12.3865 2.15836 12.0146 2.15836C11.2636 2.15836 10.5433 2.45672 10.0122 2.9878L2.00239 10.9976C1.47131 11.5287 1.17295 12.249 1.17295 13.0001C1.17295 13.372 1.2462 13.7402 1.38851 14.0838C1.53083 14.4274 1.73943 14.7395 2.00239 15.0025L10.0122 23.0123C10.5433 23.5434 11.2636 23.8418 12.0146 23.8418C12.7657 23.8418 13.486 23.5434 14.0171 23.0123L22.0269 15.0025C22.2899 14.7395 22.4985 14.4274 22.6408 14.0838C22.7831 13.7402 22.8563 13.372 22.8563 13.0001C22.8563 12.6282 22.7831 12.2599 22.6408 11.9163C22.4985 11.5728 22.2899 11.2606 22.0269 10.9976L14.0171 2.9878ZM10.8132 3.78878C11.1318 3.47013 11.564 3.29112 12.0146 3.29112C12.4653 3.29112 12.8975 3.47013 13.2161 3.78878L21.2259 11.7986C21.5446 12.1172 21.7236 12.5494 21.7236 13.0001C21.7236 13.4507 21.5446 13.8829 21.2259 14.2015L13.2161 22.2113C12.8975 22.53 12.4653 22.709 12.0146 22.709C11.564 22.709 11.1318 22.53 10.8132 22.2113L2.80337 14.2015C2.48472 13.8829 2.30571 13.4507 2.30571 13.0001C2.30571 12.5494 2.48472 12.1172 2.80337 11.7986L10.8132 3.78878Z" fill="url(#paint1_linear_250_206)"/>
<defs>
<linearGradient id="paint0_linear_250_206" x1="-10.625" y1="3.8481" x2="10.0051" y2="31.4324" gradientUnits="userSpaceOnUse">
<stop stop-color="#DED8FF"/>
<stop offset="1" stop-color="#7B48ED"/>
</linearGradient>
<linearGradient id="paint1_linear_250_206" x1="7.25883" y1="-19.2895" x2="16.0196" y2="33.0246" gradientUnits="userSpaceOnUse">
<stop stop-color="#DED8FF"/>
<stop offset="1" stop-color="#7B48ED"/>
</linearGradient>
</defs>
</svg>
