<svg width="75" height="74" viewBox="0 0 75 74" fill="none" xmlns="http://www.w3.org/2000/svg">
<path d="M59.94 29.6002H15V14.8002H71.62V0.000201199H14.85C12.91 -0.0102988 10.988 0.361301 9.192 1.0938C7.396 1.8264 5.761 2.9055 4.383 4.2696C3.004 5.6337 1.907 7.2561 1.155 9.044C0.402999 10.832 0.01 12.7506 0 14.6902V29.6902C0.008 31.6315 0.398002 33.5523 1.149 35.3425C1.9 37.1328 2.996 38.7575 4.375 40.1237C5.755 41.49 7.39 42.5709 9.187 43.3047C10.984 44.0385 12.909 44.4107 14.85 44.4002H59.85V59.2002H1.07001V74.0002H59.94C61.88 74.0108 63.802 73.6391 65.598 72.9066C67.394 72.174 69.028 71.0949 70.407 69.7308C71.786 68.3667 72.883 66.7444 73.635 64.9564C74.387 63.1684 74.78 61.2498 74.79 59.3102V44.3102C74.782 42.3689 74.392 40.4482 73.641 38.6579C72.89 36.8676 71.794 35.2429 70.415 33.8767C69.035 32.5105 67.4 31.4296 65.603 30.6958C63.806 29.962 61.881 29.5897 59.94 29.6002Z" fill="white"/>
</svg>
