<svg width="24" height="28" viewBox="0 0 24 28" fill="none" xmlns="http://www.w3.org/2000/svg">
<path fill-rule="evenodd" clip-rule="evenodd" d="M12 0.285767C10.8171 0.285767 8.84057 0.740052 6.98058 1.24577C5.07772 1.76005 3.15944 2.36862 2.03144 2.73719C1.55982 2.89294 1.14171 3.17856 0.825123 3.56125C0.50854 3.94394 0.30633 4.40817 0.241723 4.90062C-0.77999 12.5755 1.59086 18.2635 4.46743 22.0263C5.68729 23.636 7.14177 25.0535 8.78229 26.2315C9.444 26.6995 10.0577 27.0577 10.5789 27.3029C11.0589 27.5292 11.5749 27.7143 12 27.7143C12.4251 27.7143 12.9394 27.5292 13.4211 27.3029C14.0494 26.9975 14.6504 26.6391 15.2177 26.2315C16.8583 25.0535 18.3128 23.636 19.5326 22.0263C22.4091 18.2635 24.78 12.5755 23.7583 4.90062C23.6938 4.40794 23.4916 3.94343 23.1751 3.56045C22.8585 3.17747 22.4403 2.89153 21.9686 2.73548C20.3311 2.19859 18.6809 1.7013 17.0194 1.24405C15.1594 0.741766 13.1829 0.285767 12 0.285767ZM12 8.85719C12.6073 8.85628 13.1953 9.07033 13.6598 9.46141C14.1244 9.85249 14.4356 10.3954 14.5382 10.9939C14.6409 11.5924 14.5284 12.208 14.2207 12.7315C13.913 13.2551 13.43 13.6528 12.8571 13.8543L13.5171 17.2658C13.5412 17.3898 13.5374 17.5177 13.5062 17.6402C13.475 17.7626 13.4172 17.8767 13.3367 17.9742C13.2563 18.0716 13.1553 18.1501 13.041 18.204C12.9266 18.2579 12.8018 18.2858 12.6754 18.2858H11.3246C11.1983 18.2855 11.0737 18.2574 10.9596 18.2034C10.8455 18.1495 10.7447 18.071 10.6644 17.9735C10.5842 17.8761 10.5265 17.7621 10.4954 17.6397C10.4643 17.5174 10.4606 17.3897 10.4846 17.2658L11.1429 13.8543C10.57 13.6528 10.087 13.2551 9.77926 12.7315C9.47157 12.208 9.35909 11.5924 9.46176 10.9939C9.56442 10.3954 9.87559 9.85249 10.3402 9.46141C10.8047 9.07033 11.3927 8.85628 12 8.85719V8.85719Z" fill="url(#paint0_linear_250_183)"/>
<defs>
<linearGradient id="paint0_linear_250_183" x1="-27.5" y1="-54.2142" x2="12" y2="27.7143" gradientUnits="userSpaceOnUse">
<stop stop-color="#022A78"/>
<stop offset="1" stop-color="#7B48ED"/>
</linearGradient>
</defs>
</svg>
