<svg width="109" height="96" viewBox="0 0 109 96" fill="none" xmlns="http://www.w3.org/2000/svg">
<path d="M107.53 75.6899L89.8101 94.6899C89.4268 95.1026 88.9627 95.432 88.4465 95.6573C87.9304 95.8827 87.3733 95.9994 86.8101 95.9999H2.81006C2.40943 95.9997 2.01755 95.8827 1.68241 95.6631C1.34728 95.4436 1.08344 95.1311 0.923189 94.7639C0.762939 94.3967 0.713239 93.9908 0.780179 93.5958C0.847119 93.2008 1.02778 92.8338 1.30006 92.5399L19.0001 73.5399C19.3834 73.1272 19.8475 72.7979 20.3637 72.5725C20.8798 72.3472 21.4369 72.2305 22.0001 72.2299H106C106.404 72.2216 106.802 72.333 107.143 72.5502C107.484 72.7674 107.754 73.0806 107.917 73.4504C108.081 73.8203 108.131 74.2303 108.062 74.6288C107.993 75.0273 107.808 75.3965 107.53 75.6899ZM89.8101 37.4199C89.4254 37.0091 88.9609 36.6811 88.4451 36.4558C87.9293 36.2306 87.3729 36.1129 86.8101 36.11H2.81006C2.40943 36.1102 2.01755 36.2272 1.68241 36.4468C1.34728 36.6663 1.08344 36.9788 0.923189 37.346C0.762939 37.7132 0.713239 38.1191 0.780179 38.5141C0.847119 38.9091 1.02778 39.2761 1.30006 39.57L19.0001 58.58C19.3848 58.9908 19.8493 59.3188 20.3651 59.5441C20.8809 59.7693 21.4373 59.887 22.0001 59.8899H106C106.4 59.8878 106.79 59.7693 107.124 59.5491C107.458 59.3288 107.72 59.0162 107.879 58.6494C108.038 58.2826 108.087 57.8774 108.019 57.4833C107.952 57.0892 107.772 56.7232 107.5 56.43L89.8101 37.4199ZM2.81006 23.7699H86.8101C87.3733 23.7694 87.9304 23.6527 88.4465 23.4273C88.9627 23.202 89.4268 22.8726 89.8101 22.4599L107.53 3.45995C107.808 3.16647 107.993 2.79726 108.062 2.39877C108.131 2.00028 108.081 1.59031 107.917 1.22045C107.754 0.850591 107.484 0.537368 107.143 0.320195C106.802 0.103021 106.404 -0.0084012 106 -5.10788e-05H22.0001C21.4369 0.000541762 20.8798 0.117167 20.3637 0.342553C19.8475 0.567938 19.3834 0.897249 19.0001 1.30995L1.30006 20.3099C1.02778 20.6038 0.847119 20.9708 0.780179 21.3658C0.713239 21.7608 0.762939 22.1667 0.923189 22.5339C1.08344 22.9011 1.34728 23.2136 1.68241 23.4331C2.01755 23.6527 2.40943 23.7697 2.81006 23.7699Z" fill="url(#paint0_linear_142_298)"/>
<defs>
<linearGradient id="paint0_linear_142_298" x1="9.81006" y1="98.29" x2="97.8901" y2="-1.01005" gradientUnits="userSpaceOnUse">
<stop offset="0.08" stop-color="#9945FF"/>
<stop offset="0.3" stop-color="#8752F3"/>
<stop offset="0.5" stop-color="#5497D5"/>
<stop offset="0.6" stop-color="#43B4CA"/>
<stop offset="0.72" stop-color="#28E0B9"/>
<stop offset="0.97" stop-color="#19FB9B"/>
</linearGradient>
</defs>
</svg>
