<svg width="48" height="48" viewBox="0 0 48 48" fill="none" xmlns="http://www.w3.org/2000/svg">
<path d="M48.001 24C48.001 30.3652 45.4724 36.4697 40.9715 40.9706C36.4707 45.4714 30.3662 48 24.001 48C17.6358 48 11.5313 45.4714 7.03041 40.9706C2.52954 36.4697 0.000976563 30.3652 0.000976562 24C0.000976563 17.6348 2.52954 11.5303 7.03041 7.02944C11.5313 2.52856 17.6358 0 24.001 0C30.3662 0 36.4707 2.52856 40.9715 7.02944C45.4724 11.5303 48.001 17.6348 48.001 24V24ZM24.862 17.718C22.528 18.69 17.86 20.7 10.864 23.748C9.72998 24.198 9.13298 24.642 9.07898 25.074C8.98898 25.803 9.90398 26.091 11.149 26.484L11.674 26.649C12.898 27.048 14.548 27.513 15.403 27.531C16.183 27.549 17.05 27.231 18.007 26.571C24.544 22.158 27.919 19.929 28.129 19.881C28.279 19.845 28.489 19.803 28.627 19.929C28.768 20.052 28.753 20.289 28.738 20.352C28.648 20.739 25.057 24.075 23.2 25.803C22.621 26.343 22.21 26.724 22.126 26.811C21.941 27 21.753 27.1861 21.562 27.369C20.422 28.467 19.57 29.289 21.607 30.633C22.588 31.281 23.374 31.812 24.157 32.346C25.009 32.928 25.861 33.507 26.965 34.233C27.244 34.413 27.514 34.608 27.775 34.794C28.768 35.502 29.665 36.138 30.766 36.036C31.408 35.976 32.071 35.376 32.407 33.576C33.202 29.325 34.765 20.118 35.125 16.323C35.1469 16.0075 35.1339 15.6906 35.086 15.378C35.0577 15.1258 34.9357 14.8934 34.744 14.727C34.471 14.5386 34.1456 14.4409 33.814 14.448C32.914 14.463 31.525 14.946 24.862 17.718V17.718Z" fill="white"/>
</svg>
