<svg width="48" height="48" viewBox="0 0 48 48" fill="none" xmlns="http://www.w3.org/2000/svg">
<path d="M24.001 0C10.7474 0 0.000976562 10.7464 0.000976562 24C0.000976562 37.2536 10.7474 48 24.001 48C37.2545 48 48.001 37.2536 48.001 24C48.001 10.7464 37.2545 0 24.001 0ZM35.5349 18.0911C35.551 18.3429 35.551 18.6054 35.551 18.8625C35.551 26.7268 29.5617 35.7857 18.617 35.7857C15.242 35.7857 12.1135 34.8054 9.47776 33.1179C9.9599 33.1714 10.4206 33.1929 10.9135 33.1929C13.6992 33.1929 16.2599 32.25 18.301 30.6536C15.6867 30.6 13.4903 28.8857 12.7403 26.5286C13.6563 26.6625 14.4813 26.6625 15.4242 26.4214C14.0781 26.1479 12.8682 25.4169 12 24.3524C11.1318 23.2879 10.6589 21.9557 10.6617 20.5821V20.5071C11.4492 20.9518 12.376 21.225 13.3456 21.2625C12.5305 20.7193 11.862 19.9833 11.3994 19.1198C10.9369 18.2563 10.6945 17.2921 10.6938 16.3125C10.6938 15.2036 10.9831 14.1911 11.5028 13.3125C12.9969 15.1518 14.8613 16.6561 16.9749 17.7277C19.0885 18.7992 21.4039 19.414 23.7706 19.5321C22.9295 15.4875 25.951 12.2143 29.5831 12.2143C31.2974 12.2143 32.8403 12.9321 33.9278 14.0893C35.2724 13.8375 36.5581 13.3339 37.7045 12.6589C37.2599 14.0357 36.3278 15.1982 35.0903 15.9321C36.2903 15.8036 37.4474 15.4714 38.5188 15.0054C37.7099 16.1946 36.6974 17.25 35.5349 18.0911Z" fill="white"/>
</svg>
