<svg width="463" height="184" viewBox="0 0 463 184" fill="none" xmlns="http://www.w3.org/2000/svg">
<path d="M20.5795 70L0.875 0.181816H14.4773L27.0568 51.4886H27.7045L41.1364 0.181816H53.5114L66.9773 51.5227H67.5909L80.1705 0.181816H93.7727L74.0682 70H61.5909L47.6136 21.0114H47.0682L33.0568 70H20.5795ZM98.7026 70V0.181816H144.112V10.7841H111.35V29.7386H141.759V40.3409H111.35V59.3977H144.384V70H98.7026ZM182.114 70H168.614L193.193 0.181816H208.807L233.42 70H219.92L201.273 14.5H200.727L182.114 70ZM182.557 42.625H219.375V52.7841H182.557V42.625ZM238.776 70V0.181816H264.958C270.322 0.181816 274.822 1.11363 278.458 2.97727C282.117 4.84091 284.879 7.45454 286.742 10.8182C288.629 14.1591 289.572 18.0568 289.572 22.5114C289.572 26.9886 288.617 30.875 286.708 34.1705C284.822 37.4432 282.038 39.9773 278.356 41.7727C274.674 43.5455 270.151 44.4318 264.788 44.4318H246.14V33.9318H263.083C266.22 33.9318 268.788 33.5 270.788 32.6364C272.788 31.75 274.265 30.4659 275.22 28.7841C276.197 27.0795 276.685 24.9886 276.685 22.5114C276.685 20.0341 276.197 17.9205 275.22 16.1705C274.242 14.3977 272.754 13.0568 270.754 12.1477C268.754 11.2159 266.174 10.75 263.015 10.75H251.424V70H238.776ZM274.845 38.3636L292.129 70H278.015L261.038 38.3636H274.845ZM297.374 70V0.181816H342.783V10.7841H310.022V29.7386H340.431V40.3409H310.022V59.3977H343.056V70H297.374Z" fill="white"/>
<path d="M5.88636 182V112.182H32.6136C37.6591 112.182 41.8523 112.977 45.1932 114.568C48.5568 116.136 51.0682 118.284 52.7273 121.011C54.4091 123.739 55.25 126.83 55.25 130.284C55.25 133.125 54.7045 135.557 53.6136 137.58C52.5227 139.58 51.0568 141.205 49.2159 142.455C47.375 143.705 45.3182 144.602 43.0455 145.148V145.83C45.5227 145.966 47.8977 146.727 50.1705 148.114C52.4659 149.477 54.3409 151.409 55.7955 153.909C57.25 156.409 57.9773 159.432 57.9773 162.977C57.9773 166.591 57.1023 169.841 55.3523 172.727C53.6023 175.591 50.9659 177.852 47.4432 179.511C43.9205 181.17 39.4886 182 34.1477 182H5.88636ZM18.5341 171.432H32.1364C36.7273 171.432 40.0341 170.557 42.0568 168.807C44.1023 167.034 45.125 164.761 45.125 161.989C45.125 159.92 44.6136 158.057 43.5909 156.398C42.5682 154.716 41.1136 153.398 39.2273 152.443C37.3409 151.466 35.0909 150.977 32.4773 150.977H18.5341V171.432ZM18.5341 141.875H31.0455C33.2273 141.875 35.1932 141.477 36.9432 140.682C38.6932 139.864 40.0682 138.716 41.0682 137.239C42.0909 135.739 42.6023 133.966 42.6023 131.92C42.6023 129.216 41.6477 126.989 39.7386 125.239C37.8523 123.489 35.0455 122.614 31.3182 122.614H18.5341V141.875ZM77.7878 112.182V182H65.1401V112.182H77.7878ZM111.303 182H87.6439V112.182H111.78C118.712 112.182 124.667 113.58 129.644 116.375C134.644 119.148 138.485 123.136 141.167 128.341C143.848 133.545 145.189 139.773 145.189 147.023C145.189 154.295 143.837 160.545 141.132 165.773C138.451 171 134.576 175.011 129.507 177.807C124.462 180.602 118.394 182 111.303 182ZM100.292 171.057H110.689C115.553 171.057 119.61 170.17 122.86 168.398C126.11 166.602 128.553 163.932 130.189 160.386C131.826 156.818 132.644 152.364 132.644 147.023C132.644 141.682 131.826 137.25 130.189 133.727C128.553 130.182 126.133 127.534 122.928 125.784C119.746 124.011 115.792 123.125 111.064 123.125H100.292V171.057ZM153.366 182V112.182H166.014V141.739H198.366V112.182H211.048V182H198.366V152.341H166.014V182H153.366ZM283.35 147.091C283.35 154.614 281.941 161.057 279.123 166.42C276.328 171.761 272.509 175.852 267.668 178.693C262.85 181.534 257.384 182.955 251.271 182.955C245.157 182.955 239.68 181.534 234.839 178.693C230.021 175.83 226.203 171.727 223.384 166.386C220.589 161.023 219.191 154.591 219.191 147.091C219.191 139.568 220.589 133.136 223.384 127.795C226.203 122.432 230.021 118.33 234.839 115.489C239.68 112.648 245.157 111.227 251.271 111.227C257.384 111.227 262.85 112.648 267.668 115.489C272.509 118.33 276.328 122.432 279.123 127.795C281.941 133.136 283.35 139.568 283.35 147.091ZM270.634 147.091C270.634 141.795 269.805 137.33 268.146 133.693C266.509 130.034 264.237 127.273 261.327 125.409C258.418 123.523 255.066 122.58 251.271 122.58C247.475 122.58 244.123 123.523 241.214 125.409C238.305 127.273 236.021 130.034 234.362 133.693C232.725 137.33 231.907 141.795 231.907 147.091C231.907 152.386 232.725 156.864 234.362 160.523C236.021 164.159 238.305 166.92 241.214 168.807C244.123 170.67 247.475 171.602 251.271 171.602C255.066 171.602 258.418 170.67 261.327 168.807C264.237 166.92 266.509 164.159 268.146 160.523C269.805 156.864 270.634 152.386 270.634 147.091ZM335.479 112.182H348.127V157.795C348.127 162.795 346.945 167.193 344.581 170.989C342.24 174.784 338.945 177.75 334.695 179.886C330.445 182 325.479 183.057 319.797 183.057C314.093 183.057 309.115 182 304.865 179.886C300.615 177.75 297.32 174.784 294.979 170.989C292.638 167.193 291.468 162.795 291.468 157.795V112.182H304.115V156.739C304.115 159.648 304.752 162.239 306.024 164.511C307.32 166.784 309.138 168.568 311.479 169.864C313.82 171.136 316.593 171.773 319.797 171.773C323.002 171.773 325.774 171.136 328.115 169.864C330.479 168.568 332.297 166.784 333.57 164.511C334.843 162.239 335.479 159.648 335.479 156.739V112.182ZM395.977 131.375C395.659 128.398 394.318 126.08 391.954 124.42C389.613 122.761 386.568 121.932 382.818 121.932C380.182 121.932 377.92 122.33 376.034 123.125C374.147 123.92 372.704 125 371.704 126.364C370.704 127.727 370.193 129.284 370.17 131.034C370.17 132.489 370.5 133.75 371.159 134.818C371.841 135.886 372.761 136.795 373.92 137.545C375.079 138.273 376.363 138.886 377.772 139.386C379.182 139.886 380.602 140.307 382.034 140.648L388.579 142.284C391.216 142.898 393.75 143.727 396.182 144.773C398.636 145.818 400.829 147.136 402.761 148.727C404.716 150.318 406.261 152.239 407.397 154.489C408.534 156.739 409.102 159.375 409.102 162.398C409.102 166.489 408.057 170.091 405.966 173.205C403.875 176.295 400.852 178.716 396.897 180.466C392.966 182.193 388.204 183.057 382.613 183.057C377.182 183.057 372.466 182.216 368.466 180.534C364.488 178.852 361.375 176.398 359.125 173.17C356.897 169.943 355.693 166.011 355.511 161.375H367.954C368.136 163.807 368.886 165.83 370.204 167.443C371.522 169.057 373.238 170.261 375.352 171.057C377.488 171.852 379.875 172.25 382.511 172.25C385.261 172.25 387.67 171.841 389.738 171.023C391.829 170.182 393.466 169.023 394.647 167.545C395.829 166.045 396.432 164.295 396.454 162.295C396.432 160.477 395.897 158.977 394.852 157.795C393.807 156.591 392.341 155.591 390.454 154.795C388.591 153.977 386.409 153.25 383.909 152.614L375.966 150.568C370.216 149.091 365.67 146.852 362.329 143.852C359.011 140.83 357.352 136.818 357.352 131.818C357.352 127.705 358.466 124.102 360.693 121.011C362.943 117.92 366 115.523 369.863 113.818C373.727 112.091 378.102 111.227 382.988 111.227C387.943 111.227 392.284 112.091 396.011 113.818C399.761 115.523 402.704 117.898 404.841 120.943C406.977 123.966 408.079 127.443 408.147 131.375H395.977ZM416.538 182V112.182H461.947V122.784H429.185V141.739H459.594V152.341H429.185V171.398H462.219V182H416.538Z" fill="url(#paint0_linear_138_255)"/>
<defs>
<linearGradient id="paint0_linear_138_255" x1="444.083" y1="-21" x2="27.4123" y2="182.422" gradientUnits="userSpaceOnUse">
<stop offset="0.00780895" stop-color="#17DD8A"/>
<stop offset="1" stop-color="#9945FF"/>
</linearGradient>
</defs>
</svg>
