<svg width="20" height="28" viewBox="0 0 20 28" fill="none" xmlns="http://www.w3.org/2000/svg">
<path d="M14.6152 7.44822H7.44829V5.79304H13.8869C13.653 4.96018 13.5977 4.0873 13.7246 3.23158C13.8516 2.37586 14.1579 1.55661 14.6235 0.827515H1.65518C1.2162 0.827515 0.795195 1.0019 0.48479 1.3123C0.174384 1.62271 0 2.04371 0 2.48269V25.6552C0 26.0941 0.174384 26.5151 0.48479 26.8255C0.795195 27.1359 1.2162 27.3103 1.65518 27.3103H18.2069C18.6459 27.3103 19.0669 27.1359 19.3773 26.8255C19.6877 26.5151 19.8621 26.0941 19.8621 25.6552V10.3448C18.814 10.3449 17.7829 10.0793 16.8653 9.57278C15.9477 9.06622 15.1736 8.33525 14.6152 7.44822V7.44822ZM5.79312 20.6896H4.13794V19.0344H5.79312V20.6896ZM5.79312 17.3793H4.13794V15.7241H5.79312V17.3793ZM5.79312 14.0689H4.13794V12.4137H5.79312V14.0689ZM5.79312 10.7586H4.13794V9.10339H5.79312V10.7586ZM5.79312 7.44822H4.13794V5.79304H5.79312V7.44822ZM15.7242 20.6896H7.44829V19.0344H15.7242V20.6896ZM15.7242 17.3793H7.44829V15.7241H15.7242V17.3793ZM15.7242 14.0689H7.44829V12.4137H15.7242V14.0689ZM15.7242 10.7586H7.44829V9.10339H15.7242V10.7586Z" fill="white"/>
</svg>
